<?xml version="1.0" encoding="utf-8"?>
<!-- Generator: Adobe Illustrator 16.0.0, SVG Export Plug-In . SVG Version: 6.00 Build 0)  -->
<!DOCTYPE svg PUBLIC "-//W3C//DTD SVG 1.1//EN" "http://www.w3.org/Graphics/SVG/1.1/DTD/svg11.dtd">
<svg version="1.1" id="Capa_1" xmlns="http://www.w3.org/2000/svg" xmlns:xlink="http://www.w3.org/1999/xlink" x="0px" y="0px"
	 width="636.063px" height="519.052px" viewBox="0 0 636.063 519.052" enable-background="new 0 0 636.063 519.052"
	 xml:space="preserve">
<g>
	<path fill-rule="evenodd" clip-rule="evenodd" fill="#FFFEFE" d="M607.856,152.746c-16.86,37.934-59.859,58.424-98.852,47.248
		c-30.014-8.601-49.285-28.553-58.637-58.02c-6.887-21.704-5.328-43.085,4.899-63.538c9.165-18.329,23.482-31.401,42.353-39.249
		c23.821-9.906,47.638-9.564,70.622,2.324c35.672,18.455,53.738,59.533,43.984,98.64
		C611.092,144.699,609.535,149.119,607.856,152.746z M519.255,153.613c19.429,8.641,41.474-2.2,46.479-22.857
		c4.225-17.448-3.812-37.013-19.325-47.041c-16.695-10.791-40.244-3.9-48.451,14.176
		C488.886,117.87,499.126,144.661,519.255,153.613z"/>
	<path fill-rule="evenodd" clip-rule="evenodd" fill="#FFFEFE" d="M302.785,139.581c10.515-22.77,28.179-37.378,51.714-45.337
		c21.085-7.131,41.951-6.692,62.685,1.459c2.048,0.806,2.3,1.643,1.672,3.611c-4.186,13.104-8.277,26.237-12.313,39.387
		c-0.471,1.533-1.102,1.29-2.191,0.858c-5.188-2.046-10.515-3.584-16.07-4.275c-8.112-1.009-15.992,0.045-23.386,3.411
		c-13.965,6.358-20.281,17.883-20.54,32.759c-0.224,12.945,4.562,24.216,13.537,33.513c10.691,11.074,26.154,13.874,40.671,7.719
		c5.713-2.423,10.968-5.506,15.186-10.177c0.988-1.093,1.325-2.009,0.69-3.478c-1.422-3.291-2.689-6.656-3.876-10.042
		c-0.463-1.332-0.988-1.416-2.212-0.937c-8.046,3.156-16.133,6.202-24.176,9.363c-1.323,0.519-1.957,0.572-2.546-0.991
		c-4.079-10.828-8.244-21.625-12.46-32.401c-0.539-1.383-0.217-1.814,1.074-2.308c22.298-8.534,44.585-17.106,66.854-25.713
		c1.284-0.496,1.833-0.406,2.367,0.997c8.605,22.507,17.25,44.999,25.96,67.464c0.67,1.728-0.229,2.831-0.903,4.042
		c-9.609,17.203-22.837,30.84-40.204,40.279c-17.691,9.616-36.503,14.303-56.657,11.453c-24.73-3.499-43.833-16.184-57.111-37.179
		c-13.072-20.67-17.905-43.175-13.004-67.425C298.664,150.094,300.423,144.748,302.785,139.581z"/>
	<path fill-rule="evenodd" clip-rule="evenodd" fill="#FFFEFE" d="M177.438,341.167c0.373-14.42,0.742-28.798,1.115-43.176
		c1.151-44.416,2.31-88.832,3.425-133.249c0.039-1.477,0.363-2.271,1.888-2.846c12.947-4.892,25.86-9.88,38.763-14.889
		c1.294-0.503,2.104-0.531,3.193,0.613c40.041,42.189,80.131,84.333,120.212,126.488c1.693,1.781,1.687,1.795-0.561,2.66
		c-14.97,5.759-29.954,11.481-44.892,17.322c-1.685,0.658-2.578,0.324-3.718-0.93c-5.854-6.438-11.826-12.764-17.682-19.197
		c-1.007-1.106-1.805-1.251-3.185-0.715c-15.974,6.207-31.969,12.358-47.982,18.462c-1.426,0.542-2.006,1.176-1.999,2.799
		c0.041,8.84-0.07,17.683-0.12,26.524c-0.004,0.95,0.072,1.742-1.159,2.212c-15.535,5.917-31.045,11.899-46.566,17.856
		C177.98,341.178,177.749,341.145,177.438,341.167z M249.567,240.334c-7.931-8.785-15.638-17.323-23.765-26.327
		c-0.043,11.896-0.068,23.106-0.136,34.314c-0.01,1.479,0.771,0.858,1.39,0.623c3.96-1.506,7.912-3.039,11.871-4.555
		C242.392,243.063,245.862,241.746,249.567,240.334z"/>
	<path fill-rule="evenodd" clip-rule="evenodd" fill="#FFFEFE" d="M139.396,199.796c13.58,6.144,22.502,16.666,28.157,30.184
		c4.517,10.8,6.583,22.003,4.649,33.678c-2.44,14.725-10.332,26.179-21.777,35.397c-8.063,6.495-17.191,11.073-26.798,14.772
		c-4.579,1.762-9.127,3.604-13.75,5.238c-1.622,0.573-1.698,1.182-1.122,2.66c4.924,12.618,9.73,25.282,14.661,37.896
		c0.658,1.682,0.644,2.392-1.285,3.117c-13.911,5.234-27.782,10.57-41.616,16.006c-1.887,0.739-2.366,0.27-3.019-1.43
		c-19.035-49.627-38.117-99.236-57.25-148.826c-0.652-1.69-0.421-2.258,1.285-2.908c21.686-8.267,43.294-16.74,65.017-24.91
		c13.783-5.183,27.983-7.332,42.637-4.209C132.698,197.212,136.12,198.272,139.396,199.796z M114.887,241.771
		c-5.822-2.31-11.328-1.461-16.732,0.481c-5.298,1.907-10.512,4.056-15.789,6.025c-1.153,0.43-1.58,0.77-1.049,2.121
		c3.929,10.013,7.78,20.055,11.597,30.111c0.448,1.179,0.903,1.349,2.049,0.893c5.305-2.109,10.662-4.075,15.96-6.193
		c3.074-1.227,5.851-2.978,8.282-5.259C127.796,261.892,125.307,246.408,114.887,241.771z"/>
	<path fill-rule="evenodd" clip-rule="evenodd" fill="#FFFEFE" d="M503.105,380.735c-1.683,3.188-3.268,6.377-5.015,9.478
		c-4.756,8.433-10.049,16.49-17.043,23.289c-0.893,0.864-1.796,1.725-2.759,2.506c-6.23,5.045-14.177,3.554-18.118-3.474
		c-2.202-3.924-3.395-8.245-4.483-12.583c-0.176-0.701-0.354-1.402-0.682-2.688c-1.453,2.492-2.688,4.563-3.877,6.659
		c-4.59,8.096-9.455,15.997-15.882,22.814c-5.79,6.145-12.367,11.159-20.334,14.191c-10.082,3.837-19.223,1.564-26.38-6.595
		c-1.546-1.763-3.012-3.603-4.178-5.633c-0.874-1.519-1.315-1.1-1.913,0.164c-3.031,6.434-6.65,12.531-10.691,18.377
		c-3.587,5.188-7.533,10.072-12.322,14.217c-6.669,5.776-14.996,4.2-19.084-3.644c-1.701-3.266-2.756-6.775-3.696-10.319
		c-0.333-1.253-0.659-2.509-1.173-3.78c-1.078,4.263-2.661,8.313-4.27,12.345c-2.977,7.455-6.601,14.526-12.672,20.036
		c-1.964,1.783-4.096,3.306-6.515,4.414c-8.4,3.847-17.015,0.502-20.353-8.12c-3.386-8.74-4.174-17.895-3.807-27.193
		c0.564-14.336,3.266-28.196,9.462-41.209c5.219-10.955,12.046-20.727,21.922-28.08c2.24-1.671,4.641-3.044,7.215-4.145
		c5.617-2.41,10.571-1.349,14.965,2.753c1.117,1.04,2.156,2.17,3.402,3.435c0.595-2.323,1.109-4.513,1.725-6.671
		c0.359-1.259,0.76-2.534,1.35-3.697c1.396-2.76,3.081-3.488,6.116-2.735c4.228,1.047,8.072,3.028,11.925,4.981
		c1.756,0.89,1.448,2.267,1.018,3.765c-2.388,8.3-4.472,16.675-5.884,25.201c-1.46,8.813-2.457,17.669-2.248,26.625
		c0.051,2.124,0.128,4.252,0.937,6.262c0.957,2.377,2.21,2.757,4.176,1.072c3.718-3.188,6.333-7.275,8.71-11.479
		c4.672-8.262,7.22-17.156,8.22-26.627c1.837-17.363,7.793-33.115,19.519-46.351c3.414-3.854,7.298-7.245,12.004-9.441
		c6.672-3.113,13.499-3.971,20.217-0.166c6.092,3.454,8.692,8.958,8.189,15.808c-0.375,5.158-1.771,10.114-4.905,14.359
		c-3.611,4.887-8.416,7.309-14.615,6.718c-1.24-0.12-1.393-0.532-1.169-1.653c1.102-5.52,2.134-11.057,3.167-16.592
		c0.461-2.468,0.567-4.954-0.101-7.398c-0.608-2.228-2.129-2.849-4.211-1.807c-1.554,0.779-2.705,2.019-3.558,3.49
		c-9.384,16.193-14.104,33.485-12.204,52.312c0.361,3.584,1.189,7.074,2.502,10.434c2.081,5.325,6.181,7.558,11.726,6.173
		c6.859-1.713,12.276-5.799,16.758-11.087c7.265-8.575,12.212-18.539,16.631-28.78c4.459-10.342,6.484-21.401,9.324-32.215
		c2.044-7.78,3.93-15.603,5.914-23.399c0.252-0.989,0.599-1.966,1.021-2.894c1.475-3.23,3.229-4.091,6.68-3.196
		c4.065,1.056,7.791,2.945,11.515,4.836c1.836,0.933,1.575,2.348,1.12,3.929c-2.398,8.296-4.468,16.671-5.877,25.198
		c-1.456,8.815-2.429,17.674-2.246,26.631c0.045,2.129,0.166,4.255,0.961,6.256c0.887,2.236,2.164,2.599,4.048,1.091
		c3.016-2.418,5.064-5.65,7.162-8.821c9.015-13.627,13.604-28.869,16.434-44.783c3.55-19.972,8.535-39.602,14.295-59.042
		c1.453-4.911,2.88-9.831,4.356-14.733c0.337-1.118,0.748-2.225,1.255-3.276c1.32-2.75,3.1-3.591,6.069-2.872
		c4.302,1.042,8.257,2.928,12.108,5.064c1.354,0.751,1.521,1.776,1.099,3.147c-3.965,12.867-7.449,25.867-10.523,38.975
		c-3.827,16.315-6.97,32.761-8.885,49.419c-0.563,4.871-0.633,9.785-0.042,14.667c0.214,1.765,0.314,3.924,2.444,4.534
		c2.014,0.578,3.223-1.126,4.347-2.408c3.936-4.488,6.765-9.712,9.551-14.942c1.682-3.161,3.314-6.345,4.464-9.767
		c0.842-2.508,2.004-2.955,4.601-2.238c2.057,0.57,3.974,1.467,5.834,2.498c0.957,0.531,1.369,1.146,0.901,2.309
		c-6.842,17.033-14.554,33.576-26.884,47.497c-1.69,1.909-3.535,3.712-5.5,5.342c-6.188,5.138-14.112,3.647-18.133-3.335
		c-2.028-3.524-3.102-7.414-4.186-11.294C503.854,382.165,503.905,381.369,503.105,380.735z M325.397,442.076
		c4.695-10.344,7.866-21.609,11.138-32.834c1.698-5.824,3.313-11.673,4.818-17.549c0.843-3.294-0.798-6.281-4.131-8.143
		c-2.426-1.354-4.819-0.919-7.355,1.447c-2.48,2.315-4.464,5.021-5.992,8.05c-8.745,17.322-12.227,35.849-12.485,55.089
		c-0.031,2.405,0.354,4.832,1.453,7.037c1.165,2.332,2.575,2.567,4.47,0.781c0.688-0.649,1.32-1.373,1.882-2.136
		C321.767,450.321,323.675,446.46,325.397,442.076z"/>
	<path fill-rule="evenodd" clip-rule="evenodd" fill="#FFFEFE" d="M245.07,423.152c5.232-3.099,10.209-5.343,15.309-7.316
		c3.916-1.514,7.942-2.59,12.162-2.68c5.242-0.111,9.857,1.255,12.914,5.934c1.343,2.057,1.246,2.789-0.757,4.159
		c-3.566,2.443-7.333,4.561-11.134,6.608c-8.443,4.545-16.82,9.223-25.384,13.527c-3.935,1.978-5.89,4.958-6.853,9.027
		c-1.545,6.532-1.627,13.193-1.922,19.836c-0.434,9.716-0.927,19.43-0.295,29.155c0.198,3.078,0.634,6.103,1.762,9.01
		c0.877,2.257,0.404,2.945-2.072,3.437c-5.339,1.06-12.096-2.161-14.938-7.12c-1.323-2.311-2.139-4.811-2.714-7.392
		c-2.557-11.479-3.16-23.022-0.965-34.625c0.352-1.869-0.203-3.134-1.69-4.112c-1.528-1.006-3.082-1.968-4.616-2.964
		c-1.307-0.847-2.385-1.935-3.225-3.241c-1.435-2.236-1.295-4.173,0.468-6.204c2.662-3.069,5.808-5.577,9.316-7.586
		c2.045-1.17,3.123-2.681,3.676-5.049c3.124-13.394,6.999-26.587,10.88-39.781c0.177-0.598,0.78-1.338,0.153-1.813
		c-0.609-0.463-1.209,0.269-1.737,0.604c-10.678,6.81-21.475,13.413-32.793,19.128c-2.376,1.199-4.861,2.002-7.543,2.142
		c-1.487,0.08-2.941-0.062-4.286-0.697c-6.899-3.261-6.474-6.415-2.684-10.707c4.038-4.567,8.885-8.262,13.745-11.892
		c20.458-15.275,40.772-30.768,63.027-43.423c13.635-7.752,27.627-14.724,42.615-19.59c11.266-3.655,22.393-3.859,33.558,0.209
		c0.975,0.356,2.083,0.535,2.167,1.822c0.076,1.181-0.955,1.57-1.772,2.001c-8.221,4.338-16.456,8.65-24.685,12.975
		c-16.719,8.789-33.078,18.191-49.233,27.987c-6.382,3.867-10.006,9.144-12.088,15.938
		C250.195,401.026,248.078,411.875,245.07,423.152z"/>
	<path fill-rule="evenodd" clip-rule="evenodd" fill="#FFFEFE" d="M364.398,321.817c0.901,0.401,1.376,0.597,1.836,0.818
		c4.398,2.128,5.615,5.224,3.725,9.704c-1.729,4.103-4.531,7.479-7.537,10.686c-4.912,5.247-10.653,9.539-16.32,13.902
		c-2.348,1.807-7.154,1.646-9.558-0.103c-1.593-1.16-1.623-3.103-0.002-5.214c1.688-2.201,3.512-4.299,5.145-6.536
		c5.134-7.032,8.809-14.807,11.311-23.11c0.636-2.113,1.601-2.613,3.612-2.192C359.4,320.353,362.193,320.885,364.398,321.817z"/>
	<path fill-rule="evenodd" clip-rule="evenodd" fill="#FFFEFE" d="M476.082,279.122c1.56-3.368,4.631-7.139,9.626-8.956
		c6.105-2.222,11.604,0.86,12.963,7.22c1.968,9.19-5.152,20.985-14.203,23.529c-4.64,1.304-8.504-0.82-10.115-5.557
		C472.814,290.83,473.218,285.583,476.082,279.122z"/>
</g>
</svg>
